<?xml version="1.0" standalone="no"?>
<!DOCTYPE svg PUBLIC "-//W3C//DTD SVG 1.1//EN" "http://www.w3.org/Graphics/SVG/1.1/DTD/svg11.dtd" >
<svg xmlns="http://www.w3.org/2000/svg" xmlns:xlink="http://www.w3.org/1999/xlink" version="1.1">
<metadata></metadata>
<defs>
<font id="dolby_gustanbook" horiz-adv-x="1228" >
<font-face units-per-em="2048" ascent="1638" descent="-410" />
<missing-glyph horiz-adv-x="481" />
<glyph unicode="&#xfb01;" horiz-adv-x="1275" d="M61 907v119l183 14v56q0 93 17.5 152.5t59 95t101 49.5t151.5 14q89 0 181 -23v-139q-77 21 -156 21q-64 0 -101.5 -8t-56 -31t-23.5 -50t-5 -79v-54h342v-137h-342v-907h-168v907h-183zM913 1198v191h195v-191h-195zM926 0v1044h168v-1044h-168z" />
<glyph unicode="&#xfb02;" horiz-adv-x="1267" d="M61 907v119l183 14v56q0 93 17.5 152.5t59 95t101 49.5t151.5 14q89 0 181 -23v-139q-77 21 -156 21q-64 0 -101.5 -8t-56 -31t-23.5 -50t-5 -79v-54h342v-137h-342v-907h-168v907h-183zM926 0v1389h168v-1389h-168z" />
<glyph horiz-adv-x="0" />
<glyph horiz-adv-x="682" />
<glyph unicode=" "  horiz-adv-x="481" />
<glyph unicode="&#x09;" horiz-adv-x="481" />
<glyph unicode="&#xa0;" horiz-adv-x="481" />
<glyph unicode="!" horiz-adv-x="557" d="M170 0v219h217v-219h-217zM182 1389h193l-27 -947h-139z" />
<glyph unicode="&#x22;" horiz-adv-x="692" d="M135 1389h160l-25 -482h-110zM424 1389h160l-25 -482h-110z" />
<glyph unicode="#" horiz-adv-x="1351" d="M98 371l31 121h248l102 405h-248l31 121h248l94 371h129l-94 -371h238l94 371h129l-94 -371h247l-30 -121h-248l-103 -405h250l-30 -121h-250l-92 -371h-129l92 371h-238l-92 -371h-129l92 371h-248zM506 492h237l103 405h-238z" />
<glyph unicode="$" horiz-adv-x="1351" d="M256 991q0 94 37 165t103 113t147 63.5t178 23.5l67 272h158l-69 -280q98 -11 170 -39v-154q-126 47 -306 47q-138 0 -213 -54.5t-75 -154.5q0 -49 16 -83.5t34 -52.5t63.5 -30t70 -15t88.5 -8q2 0 3.5 -0.5t3 -0.5h3.5q66 -5 114 -13.5t108 -33.5t98.5 -63.5t65 -107 t26.5 -161.5q0 -104 -42 -182t-115 -122.5t-162 -65.5t-193 -21l-68 -275h-159l69 283q-141 16 -209 49v162q141 -57 367 -57q315 0 315 215q0 119 -66 163t-214 50q-71 3 -125.5 13t-111 34.5t-93.5 63.5t-60.5 104.5t-23.5 152.5z" />
<glyph unicode="%" horiz-adv-x="1820" d="M113 1040q0 68 8.5 121.5t31.5 102t60.5 80.5t97.5 50.5t140 18.5t140.5 -18.5t98 -50.5t60.5 -80.5t32 -102t9 -121.5q0 -69 -9 -122.5t-32 -102t-61 -80.5t-98 -50.5t-140 -18.5q-100 0 -168 27t-104 79.5t-51 116.5t-15 151zM252 1040q0 -47 4 -81.5t16 -68.5 t33.5 -55t58 -34t87.5 -13t87.5 13t57.5 34t33 55t16 68t4 82q0 59 -7 99.5t-26.5 78t-60.5 56t-104 18.5t-104 -18.5t-61 -55.5t-27 -78t-7 -100zM344 0l981 1389h156l-981 -1389h-156zM1030 348q0 69 9 123t32 102.5t60.5 80.5t98 50.5t140.5 18.5q100 0 168 -27t104 -80 t51 -117t15 -151q0 -68 -8.5 -121.5t-31.5 -102t-60.5 -80.5t-97.5 -50.5t-140 -18.5t-140.5 18.5t-98 50.5t-60.5 80.5t-32 102t-9 121.5zM1171 348q0 -59 7 -100t27 -78t61 -55.5t104 -18.5t104 18.5t61 55.5t27 78t7 100q0 47 -4 81.5t-16 68.5t-33.5 55t-58 34t-87.5 13 t-87.5 -13t-58 -34t-33.5 -55t-16 -68.5t-4 -81.5z" />
<glyph unicode="&#x26;" horiz-adv-x="1443" d="M121 375q0 55 17.5 102.5t43 82t69 70t80.5 58t93 53.5q-89 103 -135.5 190.5t-46.5 170.5q0 148 73 221q101 98 285 98q182 0 281 -88q39 -39 61.5 -95.5t22.5 -117.5q0 -86 -28.5 -147t-100.5 -133q-59 -59 -168 -123q135 -149 374 -381q37 85 37 184q0 80 -18 156h162 q20 -67 20 -172q0 -160 -78 -287q101 -96 236 -217h-230q-69 61 -110 100q-161 -127 -404 -127q-283 0 -417 131q-54 54 -86.5 117t-32.5 154zM303 369q0 -42 19.5 -85.5t42.5 -66.5q101 -96 282 -96t295 88q-272 257 -422 424q-101 -60 -147 -101q-36 -36 -53 -72t-17 -91z M410 1120q0 -61 42 -132t121 -163q96 60 146 105q80 80 80 184q0 79 -49.5 128.5t-145.5 49.5q-94 0 -144 -48.5t-50 -123.5z" />
<glyph unicode="'" horiz-adv-x="430" d="M135 1389h160l-25 -482h-110z" />
<glyph unicode="(" horiz-adv-x="679" d="M178 633q0 437 223 862h166q-209 -452 -209 -862q0 -390 209 -875h-164q-225 443 -225 875z" />
<glyph unicode=")" horiz-adv-x="679" d="M113 -242q209 485 209 875q0 410 -209 862h166q223 -425 223 -862q0 -430 -226 -875h-163z" />
<glyph unicode="*" d="M248 1182l33 106l276 -88l4 293h111l2 -293l276 88l33 -106l-276 -92l167 -236l-90 -63l-168 225l-167 -225l-91 63l170 236z" />
<glyph unicode="+" horiz-adv-x="1191" d="M115 483v146h399v407h162v-407h401v-146h-401v-407h-162v407h-399z" />
<glyph unicode="," horiz-adv-x="557" d="M90 -242l115 482h221l-207 -482h-129z" />
<glyph unicode="-" horiz-adv-x="786" d="M66 483v146h655v-146h-655z" />
<glyph unicode="." horiz-adv-x="557" d="M170 0v219h217v-219h-217z" />
<glyph unicode="/" horiz-adv-x="710" d="M-23 -174l601 1737h155l-600 -1737h-156z" />
<glyph unicode="0" horiz-adv-x="1282" d="M133 694q0 138 13 242.5t47 197.5t90.5 152t146 93t211.5 34t211.5 -34t146 -93t90.5 -152t47 -197.5t13 -242.5t-13 -242.5t-47 -197.5t-90.5 -152t-146 -93t-211.5 -34t-211.5 34t-146 93t-90.5 152t-47 197.5t-13 242.5zM311 694q0 -80 2 -135t9.5 -120.5t21 -108.5 t38 -87t59 -69t85 -41t115.5 -16t115.5 16t85 41t59 69t38 87t21 108.5t9.5 120.5t2 135q0 61 -1 105.5t-5 97.5t-11 91t-19 80t-29 70.5t-42 55.5t-56.5 43t-73.5 25.5t-93 9.5t-93 -9.5t-73.5 -25.5t-56.5 -43t-42 -55.5t-29 -70.5t-19 -80t-11 -91t-5 -97.5t-1 -105.5z " />
<glyph unicode="1" horiz-adv-x="868" d="M53 0v137h336v1084l-328 -4v124l498 60v-1264h309v-137h-815z" />
<glyph unicode="2" horiz-adv-x="1118" d="M102 143q347 285 504.5 489.5t157.5 395.5q0 242 -295 242q-65 0 -166 -14t-158 -33v143q163 47 336 47q461 0 461 -383q0 -106 -42 -215t-125.5 -221t-193 -221t-257.5 -232v-4h647v-137h-860z" />
<glyph unicode="3" horiz-adv-x="1130" d="M123 39v147q72 -26 176 -40.5t176 -14.5q54 0 100.5 7.5t89.5 26.5t73.5 49t48.5 77t18 108q0 106 -66 172q-70 70 -204 70h-228v135h221q115 0 185 70q71 71 71 174q0 252 -292 252q-74 0 -168 -13.5t-158 -33.5v143q148 47 338 47q228 0 343.5 -100t115.5 -264 q0 -115 -53.5 -199t-141.5 -131v-4q65 -28 109 -64t75 -100t31 -150q0 -89 -25.5 -160.5t-71 -119.5t-109.5 -80t-138.5 -46.5t-161.5 -14.5q-166 0 -354 57z" />
<glyph unicode="4" horiz-adv-x="1177" d="M84 483l496 901h182l-496 -911h516l27 465h141v-461h174v-141h-174v-336h-170v336h-688z" />
<glyph unicode="5" horiz-adv-x="1153" d="M186 37v147q70 -24 178 -39.5t179 -15.5q151 0 242.5 67t91.5 214q0 59 -14.5 104.5t-43.5 73.5t-61 46t-78.5 26.5t-83.5 11t-88 2.5q-70 0 -297 -10v725h766v-138h-596v-434q61 2 119 2q96 0 170 -8t149.5 -33.5t124.5 -69t80 -117.5t31 -175q0 -111 -39 -195.5 t-109 -136.5t-161 -78t-201 -26q-86 0 -185.5 15t-173.5 42z" />
<glyph unicode="6" horiz-adv-x="1236" d="M137 662q0 751 592 751q64 0 153 -12t144 -35v-143q-115 47 -291 47q-96 0 -167 -24t-130 -83t-91 -169t-34 -271h4q67 69 172.5 107t192.5 38q114 0 200.5 -34t138.5 -96t77.5 -143t25.5 -179q0 -86 -29 -163.5t-86 -140.5t-152 -100t-216 -37q-254 0 -379 176.5 t-125 510.5zM319 535q15 -416 336 -416q77 0 135.5 23t92.5 63.5t50.5 92t16.5 112.5q0 73 -13.5 126.5t-44 96t-86 64.5t-134.5 22q-100 0 -198.5 -50t-154.5 -134z" />
<glyph unicode="7" horiz-adv-x="983" d="M63 1251v138h855l8 -132l-500 -1257h-186l503 1247l-2 4h-678z" />
<glyph unicode="8" horiz-adv-x="1249" d="M127 367q0 123 60 212.5t165 129.5v4q-83 43 -140.5 128t-57.5 212q0 173 126.5 266.5t342.5 93.5q218 0 345.5 -93t127.5 -267q0 -127 -58 -212t-141 -128v-4q105 -40 165 -129.5t60 -212.5q0 -102 -39 -178.5t-108.5 -122.5t-157.5 -68.5t-194 -22.5q-104 0 -192 22.5 t-157 68.5t-108 123t-39 178zM305 369q0 -59 20.5 -105t52 -73.5t75 -45t85.5 -24t87 -6.5q58 0 109.5 11.5t101 38t79 79t29.5 125.5q0 121 -63 184q-86 86 -256 86t-256 -86q-64 -64 -64 -184zM332 1032q0 -103 59 -162q45 -45 100 -64.5t134 -19.5t133.5 19.5t99.5 64.5 q60 60 60 162q0 56 -13 97t-44 74.5t-90 51t-146 17.5t-146 -17.5t-90 -51t-44 -74.5t-13 -97z" />
<glyph unicode="9" horiz-adv-x="1236" d="M113 973q0 86 29 163t86 140t152 100t216 37q254 0 379 -176t125 -510q0 -752 -592 -752q-63 0 -152.5 12t-144.5 36v143q115 -47 291 -47q96 0 167 24t130 83t91 169t34 271h-4q-67 -69 -173 -107.5t-192 -38.5q-114 0 -200.5 34.5t-138.5 96.5t-77.5 143t-25.5 179z M287 979q0 -73 13.5 -126.5t44 -96t86 -64.5t134.5 -22q98 0 194.5 47.5t158.5 136.5q-15 416 -336 416q-77 0 -135.5 -23t-92.5 -63.5t-50.5 -92t-16.5 -112.5z" />
<glyph unicode=":" horiz-adv-x="557" d="M170 0v219h217v-219h-217zM170 825v219h217v-219h-217z" />
<glyph unicode=";" horiz-adv-x="557" d="M70 -242l114 482h222l-207 -482h-129zM182 825v219h217v-219h-217z" />
<glyph unicode="&#x3c;" horiz-adv-x="1329" d="M86 485v142l1120 510v-181l-428 -194q-302 -135 -475 -205v-2q173 -70 475 -205l428 -194v-181z" />
<glyph unicode="=" horiz-adv-x="1245" d="M115 283v145h1015v-145h-1015zM115 696v146h1015v-146h-1015z" />
<glyph unicode="&#x3e;" horiz-adv-x="1329" d="M123 -25v181l428 194q302 135 475 205v2q-173 70 -475 205l-428 194v181l1120 -510v-142z" />
<glyph unicode="?" horiz-adv-x="964" d="M94 1212v154q149 47 322 47q233 0 348 -100.5t115 -272.5q0 -96 -38.5 -169t-109.5 -119.5t-153 -74t-187 -44.5l-6 -191h-156l-8 314q467 23 467 272q0 100 -76 166t-235 66q-53 0 -135 -12.5t-148 -35.5zM201 0v219h217v-219h-217z" />
<glyph unicode="@" horiz-adv-x="1630" d="M137 449q0 333 189.5 529t529.5 196q165 0 292.5 -48.5t207.5 -137.5t121 -210t41 -270q0 -195 -94 -296t-253 -101q-72 0 -132.5 29.5t-80.5 88.5h-4q-29 -36 -61 -59t-65.5 -30.5t-48 -9t-42.5 -1.5q-98 0 -163.5 64.5t-65.5 191.5q0 171 102 280t285 109 q111 0 242 -31l-54 -272q-5 -25 -6.5 -33.5t-5 -34t-3.5 -37t0.5 -33.5t5.5 -33.5t13.5 -27t21.5 -23t32 -13t43 -5.5q96 0 144 72t48 197q0 121 -31 220.5t-93.5 174.5t-163 116.5t-232.5 41.5q-183 0 -315.5 -78t-199.5 -213.5t-67 -312.5q0 -278 154 -434t428 -156 q59 0 130 14.5t122 38.5v-129q-43 -21 -113.5 -34t-138.5 -13q-340 0 -529.5 185t-189.5 528zM657 385q0 -64 23 -93.5t84 -29.5q115 0 151 150l54 229q-47 6 -84 6q-103 0 -165.5 -77.5t-62.5 -184.5z" />
<glyph unicode="A" horiz-adv-x="1300" d="M39 0l493 1389h234l496 -1389h-193l-119 342h-602l-117 -342h-192zM399 487h500l-176 517q-2 7 -72 225h-4q-70 -218 -72 -225z" />
<glyph unicode="B" horiz-adv-x="1263" d="M184 0v1389h469q141 0 234 -21.5t153 -81.5q88 -88 88 -252q0 -224 -178 -313v-4q89 -34 154 -119t65 -213q0 -178 -96 -274q-66 -64 -167 -87.5t-253 -23.5h-469zM371 145h319q84 0 139 15t95 55q51 51 51 178q0 121 -51 172q-40 41 -94 55.5t-140 14.5h-319v-490z M371 780h293q80 0 131 13.5t90 52.5q49 49 49 168q0 115 -49 164q-39 39 -89.5 52t-131.5 13h-293v-463z" />
<glyph unicode="C" horiz-adv-x="1134" d="M115 690q0 198 37.5 338t114 224.5t182 122.5t249.5 38q184 0 336 -47v-154q-149 48 -301 48q-85 0 -148.5 -15.5t-117 -54t-87.5 -102.5t-52.5 -162t-18.5 -232t18.5 -231.5t52.5 -160t88 -99.5t117 -51.5t148 -14.5q179 0 328 58v-162q-131 -58 -363 -58 q-115 0 -205 23t-162 75.5t-119 135t-72 203t-25 278.5z" />
<glyph unicode="D" horiz-adv-x="1368" d="M184 0v1389h492q140 0 236 -32.5t169 -105.5q172 -172 172 -557t-172 -557q-73 -73 -168.5 -105t-236.5 -32h-492zM371 145h301q176 0 262 86q125 125 125 463t-125 463q-86 86 -262 86h-301v-1098z" />
<glyph unicode="E" horiz-adv-x="1116" d="M184 0v1389h838v-146h-651v-463h565v-145h-565v-490h667v-145h-854z" />
<glyph unicode="F" horiz-adv-x="1054" d="M184 0v1389h854v-146h-667v-463h565v-145h-565v-635h-187z" />
<glyph unicode="G" horiz-adv-x="1361" d="M115 688q0 206 42 348t126.5 224t199 117.5t273.5 35.5q208 0 366 -47v-154q-184 48 -336 48q-100 0 -170.5 -14t-131.5 -50.5t-97.5 -100.5t-57 -165t-20.5 -242q0 -134 22 -234.5t58.5 -161.5t91 -99t111.5 -52t127 -14q174 0 297 41v467h-344v145h530v-704 q-209 -103 -469 -103q-153 0 -264.5 37.5t-192.5 120.5t-121 222t-40 335z" />
<glyph unicode="H" horiz-adv-x="1417" d="M184 0v1389h187v-609h676v609h186v-1389h-186v635h-676v-635h-187z" />
<glyph unicode="I" horiz-adv-x="555" d="M184 0v1389h187v-1389h-187z" />
<glyph unicode="J" horiz-adv-x="563" d="M29 -242q86 133 125 275t39 319v1037h186v-994q0 -209 -37.5 -355t-132.5 -282h-180z" />
<glyph unicode="K" horiz-adv-x="1257" d="M184 0v1389h187v-609h202l398 609h205l-441 -672l500 -717h-217l-443 635h-204v-635h-187z" />
<glyph unicode="L" horiz-adv-x="1036" d="M184 0v1389h187v-1244h655v-145h-842z" />
<glyph unicode="M" horiz-adv-x="1718" d="M184 0v1389h240l432 -848h6l432 848h240v-1389h-184v389q0 134 5.5 403t6.5 371h-6q-95 -218 -144 -315l-282 -557h-142l-282 557q-49 97 -144 315h-6q1 -105 7 -373t6 -401v-389h-185z" />
<glyph unicode="N" horiz-adv-x="1452" d="M184 0v1389h199l541 -838q50 -78 163 -277h7q-7 383 -7 732v383h181v-1389h-199l-541 838q-55 86 -163 276h-7q7 -383 7 -731v-383h-181z" />
<glyph unicode="O" horiz-adv-x="1413" d="M115 694q0 140 17 247.5t58 198.5t108 149.5t169.5 91t239.5 32.5t239 -32.5t169 -91t108 -149.5t58 -198.5t17 -247.5t-17 -247.5t-58 -198.5t-108 -149.5t-169 -91t-239 -32.5t-239.5 32.5t-169.5 91t-108 149.5t-58 198.5t-17 247.5zM309 694q0 -149 18.5 -250.5 t63.5 -174.5t122.5 -106.5t193.5 -33.5t193 33.5t122 106.5t63.5 174.5t18.5 250.5t-18.5 251t-63.5 175t-122 106.5t-193 33.5q-93 0 -161 -22.5t-113.5 -66t-73 -113.5t-39 -157.5t-11.5 -206.5z" />
<glyph unicode="P" horiz-adv-x="1230" d="M184 0v1389h465q158 0 253.5 -25t156.5 -86q110 -110 110 -340t-110 -340q-61 -61 -156.5 -86t-253.5 -25h-278v-487h-187zM371 633h293q101 0 153 12.5t94 54.5q64 64 64 238q0 166 -72 238q-42 42 -90.5 54.5t-148.5 12.5h-293v-610z" />
<glyph unicode="Q" horiz-adv-x="1413" d="M115 694q0 140 17 247.5t58 198.5t108 149.5t169.5 91t239.5 32.5t239 -32.5t169 -91t108 -149.5t58 -198.5t17 -247.5q0 -243 -56.5 -402t-188.5 -239l268 -295h-234l-217 232q-73 -15 -163 -15q-137 0 -239.5 32.5t-169.5 91t-108 149.5t-58 198.5t-17 247.5zM309 694 q0 -149 18.5 -250.5t63.5 -174.5t122.5 -106.5t193.5 -33.5t193 33.5t122 106.5t63.5 174.5t18.5 250.5t-18.5 251t-63.5 175t-122 106.5t-193 33.5q-93 0 -161 -22.5t-113.5 -66t-73 -113.5t-39 -157.5t-11.5 -206.5z" />
<glyph unicode="R" horiz-adv-x="1277" d="M184 0v1389h510q142 0 228.5 -24t142.5 -81q104 -104 104 -309q0 -201 -108 -309q-84 -84 -240 -101l393 -565h-217l-389 559h-237v-559h-187zM371 705h331q84 0 128 13t81 50q64 61 64 207q0 144 -64 205q-37 37 -81 50t-128 13h-331v-538z" />
<glyph unicode="S" horiz-adv-x="1191" d="M127 1018q0 90 29.5 160t78 113.5t118.5 71.5t143 39t159 11q214 0 346 -47v-154q-146 48 -350 48q-157 0 -242 -59t-85 -169q0 -58 17.5 -98t38.5 -61.5t69.5 -34t80 -16t100.5 -7.5q7 0 11 -0.5t10 -1t11 -0.5q63 -4 112 -12t103 -25t93 -46t71.5 -71.5t49.5 -106.5 t17 -146q0 -97 -32 -173.5t-85.5 -124t-128 -78.5t-152.5 -43t-167 -12q-84 0 -205.5 13t-198.5 45v162q157 -58 408 -58q188 0 276 66t88 182q0 46 -9.5 82.5t-24 61.5t-41 43t-52 28t-66 16.5t-73 9t-82.5 3.5q-77 3 -139 14.5t-119 39t-95 70.5t-60.5 110t-22.5 155z" />
<glyph unicode="T" horiz-adv-x="1071" d="M31 1243v146h1009v-146h-411v-1243h-187v1243h-411z" />
<glyph unicode="U" horiz-adv-x="1363" d="M154 473v916h186v-953q0 -155 78 -233q44 -44 105 -64t159 -20t159 20t105 64q78 78 78 233v953h186v-916q0 -116 -25.5 -208t-94.5 -161q-67 -67 -164.5 -98t-243.5 -31t-243.5 31t-164.5 98q-69 69 -94.5 161t-25.5 208z" />
<glyph unicode="V" d="M18 1389h197l270 -803q81 -239 129 -402h9q48 163 129 402l270 803h188l-479 -1389h-233z" />
<glyph unicode="W" horiz-adv-x="1921" d="M29 1389h182l219 -799q44 -161 102 -389h9q68 277 98 389l215 799h221l211 -801q58 -224 98 -387h9q29 129 100 389l219 799h182l-397 -1389h-219l-217 813q-31 114 -96 375h-9q-35 -173 -90 -375l-221 -813h-219z" />
<glyph unicode="X" horiz-adv-x="1161" d="M18 0l459 705l-444 684h207l340 -533l342 533h206l-444 -684l459 -705h-207l-356 555l-355 -555h-207z" />
<glyph unicode="Y" horiz-adv-x="1177" d="M8 1389h203l381 -684h2l383 684h192l-487 -848v-541h-186v539z" />
<glyph unicode="Z" horiz-adv-x="1097" d="M84 0v135l715 1106v2h-684v146h897v-138l-715 -1104v-2h717v-145h-930z" />
<glyph unicode="[" horiz-adv-x="679" d="M209 -242v1737h381v-137h-213v-1462h213v-138h-381z" />
<glyph unicode="\" horiz-adv-x="710" d="M-23 1563h156l600 -1737h-155z" />
<glyph unicode="]" horiz-adv-x="679" d="M90 -104h213v1462h-213v137h381v-1737h-381v138z" />
<glyph unicode="^" horiz-adv-x="1021" d="M102 793l353 596h112l353 -596h-142l-266 462l-270 -462h-140z" />
<glyph unicode="_" horiz-adv-x="1048" d="M0 -207h1049v-137h-1049v137z" />
<glyph unicode="`" d="M293 1389h223l221 -230h-157z" />
<glyph unicode="a" horiz-adv-x="1085" d="M100 299q0 141 80 221q61 60 158 82.5t229 22.5q6 0 195 -9v129q0 61 -11 96t-43.5 54.5t-78 25t-129.5 5.5q-148 0 -318 -37v143q137 37 342 37q108 0 178.5 -12t124.5 -45.5t78.5 -95t24.5 -156.5v-760h-117l-25 109h-2q-133 -127 -325 -127q-83 0 -157 23t-122 69 q-82 82 -82 225zM276 295q0 -168 216 -168q183 0 270 129v225q-113 11 -184 11q-121 0 -173.5 -15.5t-91.5 -52.5q-37 -37 -37 -129z" />
<glyph unicode="b" horiz-adv-x="1202" d="M174 0v1389h168v-447h4q129 121 305 121q224 0 331.5 -127.5t107.5 -405.5q0 -548 -486 -548q-65 0 -149.5 22t-143.5 68h-4l-20 -72h-113zM342 203q42 -38 108 -58t134 -20q80 0 138 19.5t102 64.5t65.5 123t21.5 190q0 216 -68.5 307t-219.5 91q-158 0 -281 -154v-563z " />
<glyph unicode="c" horiz-adv-x="962" d="M113 522q0 103 13.5 183.5t47.5 150.5t89 115.5t140.5 71.5t198.5 26q151 0 256 -37v-143q-96 37 -237 37q-164 0 -238 -74q-92 -92 -92 -330q0 -120 21.5 -196t74.5 -129q70 -70 234 -70q138 0 268 49v-151q-140 -50 -287 -50q-254 0 -371.5 131.5t-117.5 415.5z" />
<glyph unicode="d" horiz-adv-x="1202" d="M113 522q0 541 485 541q70 0 144.5 -14t117.5 -45v385h168v-1389h-121l-20 123h-2q-133 -141 -334 -141q-223 0 -330.5 130.5t-107.5 409.5zM291 522q0 -215 70.5 -306t222.5 -91q153 0 276 154v567q-82 74 -242 74q-163 0 -245 -89.5t-82 -308.5z" />
<glyph unicode="e" horiz-adv-x="1097" d="M113 522q0 547 465 547q216 0 314.5 -109t98.5 -329q0 -66 -10 -144h-686q6 -210 88 -292q76 -76 254 -76q182 0 309 49v-143q-135 -50 -338 -50q-260 0 -377.5 131.5t-117.5 415.5zM299 625h524q2 27 2 43q0 141 -59 200q-58 58 -191 58q-126 0 -192 -66 q-69 -69 -84 -235z" />
<glyph unicode="f" horiz-adv-x="759" d="M61 907v119l183 14v56q0 93 17.5 152.5t59 95t101 49.5t151.5 14q124 0 224 -23v-139q-87 21 -199 21q-64 0 -101.5 -8t-56 -31t-23.5 -50t-5 -79v-54h362v-137h-362v-907h-168v907h-183z" />
<glyph unicode="g" horiz-adv-x="1185" d="M113 563q0 500 475 500q66 0 147 -20t139 -66h5l20 67h113v-1007q0 -75 -15.5 -135.5t-41.5 -102t-64 -72.5t-78 -49t-90.5 -29t-93.5 -14.5t-94 -3.5q-84 0 -182.5 13t-168.5 37v151q142 -49 332 -49q162 0 245 54t83 186v161h-4q-123 -118 -299 -118 q-215 0 -321.5 120.5t-106.5 376.5zM291 563q0 -191 68 -272.5t210 -81.5q77 0 149.5 39t125.5 112v482q-41 38 -105 58t-131 20q-155 0 -236 -81t-81 -276z" />
<glyph unicode="h" horiz-adv-x="1206" d="M174 0v1389h168v-474h4q153 148 373 148q186 0 259 -77.5t73 -248.5v-737h-168v702q0 119 -44 166t-161 47q-96 0 -183 -44.5t-153 -127.5v-743h-168z" />
<glyph unicode="i" horiz-adv-x="524" d="M160 1198v191h196v-191h-196zM174 0v1044h168v-1044h-168z" />
<glyph unicode="j" horiz-adv-x="534" d="M61 -344q58 86 90.5 198t32.5 230v960h168v-833q0 -201 -24 -323t-101 -232h-166zM170 1198v191h197v-191h-197z" />
<glyph unicode="k" horiz-adv-x="1056" d="M174 0v1389h168v-764h147l285 419h191l-332 -483l399 -561h-201l-342 487h-147v-487h-168z" />
<glyph unicode="l" horiz-adv-x="516" d="M174 0v1389h168v-1389h-168z" />
<glyph unicode="m" horiz-adv-x="1812" d="M174 0v1044h121l24 -147h3q152 166 366 166q125 0 194.5 -40.5t96.5 -123.5h2q150 164 365 164q174 0 242.5 -77.5t68.5 -248.5v-737h-168v705q0 118 -39.5 165.5t-144.5 47.5q-86 0 -166 -45t-140 -128v-745h-168v705q0 118 -39.5 165.5t-144.5 47.5q-86 0 -165.5 -45.5 t-139.5 -129.5v-743h-168z" />
<glyph unicode="n" horiz-adv-x="1206" d="M174 0v1044h121l24 -147h3q163 166 397 166q186 0 259 -77.5t73 -248.5v-737h-168v702q0 119 -44 166t-161 47q-96 0 -183 -44.5t-153 -127.5v-743h-168z" />
<glyph unicode="o" horiz-adv-x="1200" d="M113 522q0 152 34 259.5t100 169.5t152.5 90t200.5 28t200.5 -28t152.5 -90t100 -169.5t34 -259.5t-34 -259.5t-100 -169.5t-152.5 -90t-200.5 -28t-200.5 28t-152.5 90t-100 169.5t-34 259.5zM289 522q0 -239 88 -327q76 -76 223 -76t223 76q88 88 88 327q0 240 -88 328 q-76 76 -223 76t-223 -76q-88 -88 -88 -328z" />
<glyph unicode="p" horiz-adv-x="1202" d="M174 -344v1388h121l20 -122h2q133 141 334 141q224 0 331.5 -128.5t107.5 -406.5q0 -546 -486 -546q-67 0 -142.5 15.5t-119.5 45.5v-387h-168zM342 203q42 -38 108 -58t134 -20q80 0 138 19.5t102 64.5t65.5 123t21.5 190q0 216 -68.5 307t-219.5 91q-158 0 -281 -154 v-563z" />
<glyph unicode="q" horiz-adv-x="1202" d="M113 522q0 541 485 541q68 0 151 -20t142 -66h4l20 67h113v-1388h-168v446h-4q-128 -120 -305 -120q-223 0 -330.5 130.5t-107.5 409.5zM291 522q0 -216 69 -306.5t220 -90.5q157 0 280 154v563q-42 38 -108 58t-134 20q-163 0 -245 -89.5t-82 -308.5z" />
<glyph unicode="r" horiz-adv-x="778" d="M174 0v1044h121l22 -157h2q113 174 295 174q89 0 152 -31v-143q-65 33 -141 33q-101 0 -167 -54.5t-116 -152.5v-713h-168z" />
<glyph unicode="s" horiz-adv-x="1007" d="M131 770q0 299 432 299q171 0 283 -37v-143q-119 37 -287 37q-254 0 -254 -156q0 -21 3 -38.5t10.5 -31.5t14.5 -24.5t21 -18.5t23.5 -13.5t29.5 -9.5t30.5 -6t35 -3.5t35 -2t37.5 -1.5q34 -1 55.5 -2.5t57 -5.5t58.5 -10.5t54 -18.5t51.5 -27.5t42.5 -40t34.5 -54.5 t21 -71t8.5 -90q0 -86 -36 -150.5t-101 -102t-145 -55.5t-177 -18q-59 0 -162 13t-166 37v151q73 -25 168.5 -37t163.5 -12q158 0 219.5 41.5t61.5 126.5q0 54 -17 87.5t-53 47t-69.5 17.5t-87.5 6h-13q-44 2 -72 4t-73 9.5t-74 20t-63 36t-54 55.5t-33.5 81t-13.5 111z" />
<glyph unicode="t" horiz-adv-x="827" d="M61 907v119l197 21l43 231h115l-2 -234h348v-137h-350v-569q0 -55 2.5 -84.5t11 -58t27 -41t48.5 -20t77 -7.5q44 0 105.5 11.5t94.5 29.5v-143q-93 -41 -252 -41q-113 0 -172 31t-84.5 107t-25.5 220v565h-183z" />
<glyph unicode="u" horiz-adv-x="1206" d="M156 307v737h168v-702q0 -119 43.5 -166t160.5 -47q96 0 183 44.5t153 127.5v743h168v-1044h-121l-24 147h-2q-162 -165 -398 -165q-186 0 -258.5 77t-72.5 248z" />
<glyph unicode="v" horiz-adv-x="1056" d="M29 1044h180l217 -591q21 -57 104 -308h5q83 251 104 308l217 591h172l-395 -1044h-209z" />
<glyph unicode="w" horiz-adv-x="1593" d="M35 1044h172l172 -581q30 -98 76 -285h4q51 208 73 285l168 581h201l170 -583q32 -112 74 -283h4q49 200 74 283l172 583h166l-320 -1044h-197l-174 594q-55 190 -71 274h-4q-14 -73 -72 -274l-172 -594h-197z" />
<glyph unicode="x" horiz-adv-x="978" d="M8 0l381 528l-369 516h199l273 -387l274 387h192l-370 -514l383 -530h-203l-281 399l-282 -399h-197z" />
<glyph unicode="y" horiz-adv-x="1054" d="M29 1044h180l213 -536q61 -154 108 -289h5q47 135 108 289l213 536h170l-561 -1388h-174l151 373z" />
<glyph unicode="z" horiz-adv-x="937" d="M68 0v106l573 797v4h-545v137h762v-106l-573 -797v-4h567v-137h-784z" />
<glyph unicode="{" horiz-adv-x="679" d="M139 621v41l107 104q-3 90 -19 235t-16 181q0 83 13.5 138t49 96t98 60t158.5 19q40 0 60 -2v-137h-27q-28 0 -50.5 -1t-40.5 -5l-31.5 -7t-23.5 -11t-17 -13.5t-11.5 -18.5t-6.5 -21t-3.5 -26.5t-1.5 -29.5v-35q0 -77 14.5 -208t14.5 -179q0 -107 -50 -160 q50 -53 50 -170q0 -54 -14.5 -191.5t-14.5 -213.5v-35t1.5 -29.5t3.5 -26.5t6.5 -21t11.5 -18.5t17 -13.5t23.5 -11l31.5 -7t40.5 -5t50.5 -1h27v-138q-20 -2 -60 -2q-96 0 -158.5 19t-98 60.5t-49 96.5t-13.5 138q0 34 16.5 193t18.5 251z" />
<glyph unicode="|" horiz-adv-x="1036" d="M446 -174v1737h144v-1737h-144z" />
<glyph unicode="}" horiz-adv-x="679" d="M90 -102h27q28 0 50.5 1t40.5 5l31.5 7t23.5 11t17 13.5t11.5 18.5t6.5 21t3.5 26.5t1.5 29.5v35q0 76 -14.5 213.5t-14.5 191.5q0 117 50 170q-50 53 -50 160q0 48 14.5 179t14.5 208v35t-1.5 29.5t-3.5 26.5t-6.5 21t-11.5 18.5t-17 13.5t-23.5 11l-31.5 7t-40.5 5 t-50.5 1h-27v137q20 2 60 2q96 0 158.5 -19t98 -60t49 -96t13.5 -138q0 -36 -16 -181t-19 -235l107 -104v-41l-107 -105q2 -92 18.5 -251t16.5 -193q0 -83 -13.5 -138t-49 -96.5t-98 -60.5t-158.5 -19q-40 0 -60 2v138z" />
<glyph unicode="~" horiz-adv-x="1245" d="M115 590v145q59 37 134 61.5t144 24.5q77 0 229 -44t228 -44q139 0 280 86v-149q-57 -36 -131.5 -59t-146.5 -23q-78 0 -230 44t-227 44q-139 0 -280 -86z" />
<glyph unicode="&#xa1;" horiz-adv-x="557" d="M170 825v219h217v-219h-217zM182 -344l27 946h139l27 -946h-193z" />
<glyph unicode="&#xa2;" horiz-adv-x="1351" d="M297 711q0 136 21.5 237.5t72 183t141 126t220.5 49.5l55 223h158l-58 -230q79 -11 135 -30v-144q-96 37 -237 37q-96 0 -160.5 -28t-101.5 -87t-52.5 -139.5t-15.5 -197.5q0 -228 73 -335.5t257 -107.5q138 0 268 49v-151q-137 -49 -287 -49q-25 0 -79 4l-54 -221h-159 l63 256q-133 55 -196.5 191t-63.5 364z" />
<glyph unicode="&#xa3;" horiz-adv-x="1351" d="M236 12v131q21 2 26 2t27 3t30.5 7t25 11.5t24 17.5t15 26t9.5 36l35 389h-145v145h155l15 142q10 102 27 176t47.5 136t74.5 100t108.5 58.5t151.5 20.5q154 0 283 -47v-156q-131 50 -268 50q-66 0 -109.5 -20t-70 -67.5t-40 -110.5t-22.5 -165l-10 -117h325v-145h-338 l-41 -414q53 -38 139.5 -59t168.5 -21q165 0 290 60v-148q-58 -31 -148.5 -48t-160.5 -17q-210 0 -344 73q-58 -61 -162 -61q-64 0 -118 12z" />
<glyph unicode="&#xa4;" horiz-adv-x="1757" d="M174 100l219 217q-104 144 -104 379q0 230 104 375l-219 219l109 109l217 -217q145 110 379 110q227 0 378 -110l216 217l110 -109l-219 -219q104 -145 104 -375q0 -231 -104 -379l219 -217l-110 -108l-216 215q-153 -109 -378 -109q-229 0 -379 109l-217 -215zM459 696 q0 -102 23.5 -181.5t62.5 -130t94 -83t113.5 -46t126.5 -13.5q86 0 157 22.5t132 72.5t95.5 141.5t34.5 217.5q0 102 -23 181.5t-62 129.5t-94 83t-113.5 46t-126.5 13t-126.5 -13t-113.5 -46t-94 -83t-62.5 -129.5t-23.5 -181.5z" />
<glyph unicode="&#xa5;" horiz-adv-x="1351" d="M150 1389h202l322 -684h2l334 684h192l-260 -502h236v-127h-301l-58 -111h361v-127h-416v-522h-186v522h-402v127h346l-55 111h-291v127h225z" />
<glyph unicode="&#xa6;" horiz-adv-x="1036" d="M446 -174v809h144v-809h-144zM446 780v783h144v-783h-144z" />
<glyph unicode="&#xa7;" horiz-adv-x="1054" d="M127 606q0 79 28.5 139.5t71.5 90.5q-98 88 -98 237q0 81 24 142t63.5 98t97.5 60t117 31.5t130 8.5q172 0 283 -39v-141q-119 37 -287 37q-133 0 -193.5 -43t-60.5 -152q0 -72 43 -112q29 -28 88 -47t121.5 -28t130.5 -30t120.5 -51.5t87 -94t34.5 -155.5 q0 -73 -24 -124.5t-73 -108.5q95 -84 95 -228q0 -362 -459 -362q-61 0 -163 12.5t-165 36.5v151q73 -25 168.5 -37t163.5 -12q162 0 221.5 43.5t59.5 153.5q0 72 -45 117q-27 27 -75.5 44.5t-100.5 27t-110 20.5t-109.5 31t-93.5 52t-66.5 91t-24.5 141zM301 606 q0 -50 23 -83.5t68 -51.5t89 -27.5t110.5 -22t108.5 -24.5q54 48 54 154q0 44 -17.5 76t-43 50t-67.5 32t-79 20.5t-90 17t-88 19.5q-68 -50 -68 -160z" />
<glyph unicode="&#xa8;" d="M360 1202v176h183v-176h-183zM750 1202v176h182v-176h-182z" />
<glyph unicode="&#xa9;" horiz-adv-x="1744" d="M143 694q0 338 190 528.5t539 190.5t539.5 -191t190.5 -528t-190.5 -528t-539.5 -191t-539 190.5t-190 528.5zM281 694q0 -282 149.5 -440t441.5 -158t442 158t150 440t-150 440t-442 158t-441.5 -158t-149.5 -440zM586 700q0 195 77 284t238 89q99 0 178 -29v-106 q-76 27 -161 27q-107 0 -152 -58t-45 -207t45 -206.5t152 -57.5q85 0 161 27v-107q-77 -28 -178 -28q-161 0 -238 88.5t-77 283.5z" />
<glyph unicode="&#xaa;" horiz-adv-x="829" d="M76 807q0 107 63 170q82 82 295 82q58 0 125 -6v82q0 77 -34 98.5t-140 21.5q-105 0 -250 -34v127q103 34 268 34q84 0 138 -9t96.5 -34t61 -72.5t18.5 -121.5v-570h-119l-16 70h-4q-79 -82 -222 -82t-215 72q-65 65 -65 172zM240 805q0 -113 139 -113q117 0 180 84v154 q-80 6 -119 6q-83 0 -118 -10t-60 -35q-22 -22 -22 -86z" />
<glyph unicode="&#xab;" horiz-adv-x="1177" d="M127 578l326 466h209l-320 -466l320 -474h-209zM516 578l326 466h209l-320 -466l320 -474h-209z" />
<glyph unicode="&#xac;" horiz-adv-x="1097" d="M82 1006v137h901v-584h-168v447h-733z" />
<glyph unicode="&#xad;" horiz-adv-x="786" d="M66 483v146h655v-146h-655z" />
<glyph unicode="&#xae;" horiz-adv-x="1744" d="M143 694q0 338 190 528.5t539 190.5t539.5 -191t190.5 -528t-190.5 -528t-539.5 -191t-539 190.5t-190 528.5zM281 694q0 -282 149.5 -440t441.5 -158t442 158t150 440t-150 440t-442 158t-441.5 -158t-149.5 -440zM610 344v713h277q152 0 217 -49.5t65 -180.5 q0 -77 -41.5 -138t-99.5 -75l137 -270h-137l-123 250h-170v-250h-125zM737 698h170q82 0 108.5 26.5t26.5 109.5q0 64 -29.5 91t-105.5 27h-170v-254z" />
<glyph unicode="&#xaf;" d="M274 1227v139h678v-139h-678z" />
<glyph unicode="&#xb0;" horiz-adv-x="888" d="M84 1081q0 161 99.5 246.5t260.5 85.5t261 -85.5t100 -246.5t-100 -246t-261 -85t-260.5 85t-99.5 246zM246 1081q0 -100 52 -149t146 -49t146.5 49t52.5 149q0 101 -52.5 152t-146.5 51t-146 -50.5t-52 -152.5z" />
<glyph unicode="&#xb1;" horiz-adv-x="1191" d="M115 0v145h962v-145h-962zM115 698v146h399v340h162v-340h401v-146h-401v-340h-162v340h-399z" />
<glyph unicode="&#xb2;" horiz-adv-x="620" d="M53 750q175 145 254.5 246t79.5 194q0 102 -121 102q-85 0 -190 -32v110q109 31 196 31q258 0 258 -209q0 -98 -72.5 -203t-209.5 -229v-2q98 2 139 2h158v-105h-488z" />
<glyph unicode="&#xb3;" horiz-adv-x="618" d="M53 680v113q105 -39 207 -39q135 0 135 116q0 53 -22 78q-25 29 -84 29h-142v104h138q48 0 75 27q25 25 25 78q0 108 -119 108q-73 0 -190 -32v110q99 29 196 29q128 0 193 -55t65 -144q0 -106 -86 -168v-2q99 -52 99 -160q0 -117 -78 -173t-205 -56q-114 0 -207 37z" />
<glyph unicode="&#xb4;" d="M492 1159l221 230h223l-287 -230h-157z" />
<glyph unicode="&#xb5;" horiz-adv-x="1409" d="M236 -344v1487h167v-801q0 -119 48.5 -166t177.5 -47q108 0 206 44.5t171 127.5v842h168v-1143h-121l-25 147h-2q-179 -165 -438 -165q-108 0 -180 34h-5v-360h-167z" />
<glyph unicode="&#xb6;" horiz-adv-x="1226" d="M125 684q0 230 139 343.5t383 113.5h455v-146h-184v-1339h-187v1339h-133v-762h-16q-97 2 -177.5 29.5t-144 80.5t-99.5 140t-36 201z" />
<glyph unicode="&#xb7;" horiz-adv-x="557" d="M170 446v220h217v-220h-217z" />
<glyph unicode="&#xb8;" d="M424 -225q57 -17 133 -17q59 0 85 11.5t26 37.5q0 24 -32.5 37t-76.5 17l-12 49l41 90h147l-33 -76q125 -30 125 -129q0 -75 -68.5 -113t-185.5 -38q-70 0 -149 20v111z" />
<glyph unicode="&#xb9;" horiz-adv-x="518" d="M47 655v105h154v508l-154 -2v98l297 35v-639h137v-105h-434z" />
<glyph unicode="&#xba;" horiz-adv-x="917" d="M84 971q0 223 97 317t278 94q180 0 277.5 -96t97.5 -315q0 -220 -97 -316t-278 -96t-278 94.5t-97 317.5zM250 971q0 -173 67 -240q45 -45 142 -45q96 0 143 47q66 66 66 238q0 171 -62 233q-51 51 -147 51q-95 0 -146 -51q-63 -63 -63 -233z" />
<glyph unicode="&#xbb;" horiz-adv-x="1177" d="M127 104l319 474l-319 466h209l326 -466l-326 -474h-209zM516 104l320 474l-320 466h209l326 -466l-326 -474h-209z" />
<glyph unicode="&#xbc;" horiz-adv-x="1464" d="M47 655v105h154v508l-154 -2v98l297 35v-639h137v-105h-434zM184 0l981 1389h156l-981 -1389h-156zM858 260l264 473h146l-246 -461v-2l197 2l16 232h115v-230h86v-106h-86v-168h-142v168h-346z" />
<glyph unicode="&#xbd;" horiz-adv-x="1523" d="M57 655v105h154v508l-154 -2v98l297 35v-639h138v-105h-435zM154 0l981 1389h155l-981 -1389h-155zM956 94q175 144 254.5 246t79.5 195q0 102 -121 102q-82 0 -190 -33v111q105 30 197 30q258 0 258 -208q0 -98 -73 -203.5t-210 -229.5v-2q98 2 139 2h158v-104h-487z " />
<glyph unicode="&#xbe;" horiz-adv-x="1579" d="M74 680v113q105 -39 207 -39q135 0 135 116q0 52 -23 78q-25 29 -84 29h-141v104h137q49 0 76 27q25 25 25 78q0 108 -119 108q-74 0 -191 -32v110q99 29 197 29q128 0 193 -55t65 -144q0 -106 -86 -168v-2q98 -52 98 -160q0 -117 -77.5 -173t-204.5 -56q-114 0 -207 37z M272 0l981 1389h156l-981 -1389h-156zM973 260l264 473h145l-245 -461v-2l196 2l17 232h114v-230h86v-106h-86v-168h-141v168h-346z" />
<glyph unicode="&#xbf;" horiz-adv-x="923" d="M86 4q0 77 26 140.5t70 106.5t108 76t132 52.5t151 32.5l7 190h155l8 -313q-467 -23 -467 -273q0 -100 76.5 -165.5t235.5 -65.5q54 0 135 12t147 35v-154q-149 -47 -321 -47q-233 0 -348 100.5t-115 272.5zM547 825v219h217v-219h-217z" />
<glyph unicode="&#xc0;" horiz-adv-x="1300" d="M39 0l493 1389h234l496 -1389h-193l-119 342h-602l-117 -342h-192zM287 1733h223l221 -230h-158zM399 487h500l-176 517q-2 7 -72 225h-4q-70 -218 -72 -225z" />
<glyph unicode="&#xc1;" horiz-adv-x="1300" d="M39 0l493 1389h234l496 -1389h-193l-119 342h-602l-117 -342h-192zM399 487h500l-176 517q-2 7 -72 225h-4q-70 -218 -72 -225zM578 1503l221 230h223l-287 -230h-157z" />
<glyph unicode="&#xc2;" horiz-adv-x="1300" d="M39 0l493 1389h234l496 -1389h-193l-119 342h-602l-117 -342h-192zM344 1503l225 238h162l223 -238h-166l-139 144l-139 -144h-166zM399 487h500l-176 517q-2 7 -72 225h-4q-70 -218 -72 -225z" />
<glyph unicode="&#xc3;" horiz-adv-x="1300" d="M39 0l493 1389h234l496 -1389h-193l-119 342h-602l-117 -342h-192zM309 1548v135q37 28 89.5 51t97.5 23q52 0 154 -34.5t153 -34.5q83 0 188 73v-135q-36 -27 -88.5 -49.5t-97.5 -22.5q-53 0 -156.5 34t-150.5 34q-83 0 -189 -74zM399 487h500l-176 517q-2 7 -72 225h-4 q-70 -218 -72 -225z" />
<glyph unicode="&#xc4;" horiz-adv-x="1300" d="M39 0l493 1389h234l496 -1389h-193l-119 342h-602l-117 -342h-192zM362 1546v176h183v-176h-183zM399 487h500l-176 517q-2 7 -72 225h-4q-70 -218 -72 -225zM752 1546v176h182v-176h-182z" />
<glyph unicode="&#xc5;" horiz-adv-x="1300" d="M39 0l493 1389h234l496 -1389h-193l-119 342h-602l-117 -342h-192zM399 487h500l-176 517q-2 7 -72 225h-4q-70 -218 -72 -225zM467 1655q0 149 184 149q183 0 183 -149q0 -150 -183 -150q-184 0 -184 150zM575 1655q0 -66 76 -66q74 0 74 66q0 67 -74 67q-76 0 -76 -67z " />
<glyph unicode="&#xc6;" horiz-adv-x="1947" d="M-125 0l1069 1389h909v-146h-651v-463h565v-145h-565v-490h668v-145h-854v342h-647l-260 -342h-234zM473 487h541v730h-4q-118 -176 -191 -271z" />
<glyph unicode="&#xc7;" horiz-adv-x="1134" d="M115 690q0 198 37.5 338t114 224.5t182 122.5t249.5 38q184 0 336 -47v-154q-149 48 -301 48q-85 0 -148.5 -15.5t-117 -54t-87.5 -102.5t-52.5 -162t-18.5 -232t18.5 -231.5t52.5 -160t88 -99.5t117 -51.5t148 -14.5q179 0 328 58v-162q-111 -48 -299 -56l-23 -53 q125 -30 125 -129q0 -75 -68.5 -113t-185.5 -38q-70 0 -149 20v111q57 -17 133 -17q59 0 85 11.5t26 37.5q0 24 -32.5 37t-76.5 17l-12 49l30 70q-124 10 -214.5 53t-155.5 126.5t-97 216t-32 314.5z" />
<glyph unicode="&#xc8;" horiz-adv-x="1116" d="M184 0v1389h838v-146h-651v-463h565v-145h-565v-490h667v-145h-854zM305 1733h223l222 -230h-158z" />
<glyph unicode="&#xc9;" horiz-adv-x="1116" d="M184 0v1389h838v-146h-651v-463h565v-145h-565v-490h667v-145h-854zM520 1503l221 230h224l-287 -230h-158z" />
<glyph unicode="&#xca;" horiz-adv-x="1116" d="M184 0v1389h838v-146h-651v-463h565v-145h-565v-490h667v-145h-854zM305 1503l225 238h162l223 -238h-165l-140 144l-139 -144h-166z" />
<glyph unicode="&#xcb;" horiz-adv-x="1116" d="M184 0v1389h838v-146h-651v-463h565v-145h-565v-490h667v-145h-854zM326 1546v176h182v-176h-182zM715 1546v176h182v-176h-182z" />
<glyph unicode="&#xcc;" horiz-adv-x="555" d="M-90 1733h223l221 -230h-157zM184 0v1389h187v-1389h-187z" />
<glyph unicode="&#xcd;" horiz-adv-x="555" d="M184 0v1389h187v-1389h-187zM199 1503l221 230h223l-287 -230h-157z" />
<glyph unicode="&#xce;" horiz-adv-x="555" d="M-29 1503l226 238h161l224 -238h-166l-140 144l-139 -144h-166zM184 0v1389h187v-1389h-187z" />
<glyph unicode="&#xcf;" horiz-adv-x="555" d="M-8 1546v176h182v-176h-182zM184 0v1389h187v-1389h-187zM381 1546v176h182v-176h-182z" />
<glyph unicode="&#xd0;" horiz-adv-x="1431" d="M41 635v145h207v609h491q140 0 236.5 -32.5t169.5 -105.5q172 -172 172 -557t-172 -557q-73 -73 -169 -105t-237 -32h-491v635h-207zM434 145h301q176 0 262 86q125 125 125 463t-125 463q-86 86 -262 86h-301v-463h377v-145h-377v-490z" />
<glyph unicode="&#xd1;" horiz-adv-x="1452" d="M184 0v1389h199l541 -838q50 -78 163 -277h7q-7 383 -7 732v383h181v-1389h-199l-541 838q-55 86 -163 276h-7q7 -383 7 -731v-383h-181zM385 1548v135q37 28 89 51t97 23q52 0 154.5 -34.5t153.5 -34.5q83 0 188 73v-135q-36 -27 -88.5 -49.5t-97.5 -22.5q-53 0 -157 34 t-151 34q-82 0 -188 -74z" />
<glyph unicode="&#xd2;" horiz-adv-x="1413" d="M115 694q0 140 17 247.5t58 198.5t108 149.5t169.5 91t239.5 32.5t239 -32.5t169 -91t108 -149.5t58 -198.5t17 -247.5t-17 -247.5t-58 -198.5t-108 -149.5t-169 -91t-239 -32.5t-239.5 32.5t-169.5 91t-108 149.5t-58 198.5t-17 247.5zM309 694q0 -149 18.5 -250.5 t63.5 -174.5t122.5 -106.5t193.5 -33.5t193 33.5t122 106.5t63.5 174.5t18.5 250.5t-18.5 251t-63.5 175t-122 106.5t-193 33.5q-93 0 -161 -22.5t-113.5 -66t-73 -113.5t-39 -157.5t-11.5 -206.5zM342 1733h223l221 -230h-157z" />
<glyph unicode="&#xd3;" horiz-adv-x="1413" d="M115 694q0 140 17 247.5t58 198.5t108 149.5t169.5 91t239.5 32.5t239 -32.5t169 -91t108 -149.5t58 -198.5t17 -247.5t-17 -247.5t-58 -198.5t-108 -149.5t-169 -91t-239 -32.5t-239.5 32.5t-169.5 91t-108 149.5t-58 198.5t-17 247.5zM309 694q0 -149 18.5 -250.5 t63.5 -174.5t122.5 -106.5t193.5 -33.5t193 33.5t122 106.5t63.5 174.5t18.5 250.5t-18.5 251t-63.5 175t-122 106.5t-193 33.5q-93 0 -161 -22.5t-113.5 -66t-73 -113.5t-39 -157.5t-11.5 -206.5zM616 1503l222 230h223l-287 -230h-158z" />
<glyph unicode="&#xd4;" horiz-adv-x="1413" d="M115 694q0 140 17 247.5t58 198.5t108 149.5t169.5 91t239.5 32.5t239 -32.5t169 -91t108 -149.5t58 -198.5t17 -247.5t-17 -247.5t-58 -198.5t-108 -149.5t-169 -91t-239 -32.5t-239.5 32.5t-169.5 91t-108 149.5t-58 198.5t-17 247.5zM309 694q0 -149 18.5 -250.5 t63.5 -174.5t122.5 -106.5t193.5 -33.5t193 33.5t122 106.5t63.5 174.5t18.5 250.5t-18.5 251t-63.5 175t-122 106.5t-193 33.5q-93 0 -161 -22.5t-113.5 -66t-73 -113.5t-39 -157.5t-11.5 -206.5zM401 1503l226 238h161l224 -238h-166l-139 144l-140 -144h-166z" />
<glyph unicode="&#xd5;" horiz-adv-x="1413" d="M115 694q0 140 17 247.5t58 198.5t108 149.5t169.5 91t239.5 32.5t239 -32.5t169 -91t108 -149.5t58 -198.5t17 -247.5t-17 -247.5t-58 -198.5t-108 -149.5t-169 -91t-239 -32.5t-239.5 32.5t-169.5 91t-108 149.5t-58 198.5t-17 247.5zM309 694q0 -149 18.5 -250.5 t63.5 -174.5t122.5 -106.5t193.5 -33.5t193 33.5t122 106.5t63.5 174.5t18.5 250.5t-18.5 251t-63.5 175t-122 106.5t-193 33.5q-93 0 -161 -22.5t-113.5 -66t-73 -113.5t-39 -157.5t-11.5 -206.5zM367 1548v135q37 28 89 51t97 23q52 0 154 -34.5t153 -34.5q84 0 189 73 v-135q-36 -27 -89 -49.5t-98 -22.5q-53 0 -156.5 34t-150.5 34q-82 0 -188 -74z" />
<glyph unicode="&#xd6;" horiz-adv-x="1413" d="M115 694q0 140 17 247.5t58 198.5t108 149.5t169.5 91t239.5 32.5t239 -32.5t169 -91t108 -149.5t58 -198.5t17 -247.5t-17 -247.5t-58 -198.5t-108 -149.5t-169 -91t-239 -32.5t-239.5 32.5t-169.5 91t-108 149.5t-58 198.5t-17 247.5zM309 694q0 -149 18.5 -250.5 t63.5 -174.5t122.5 -106.5t193.5 -33.5t193 33.5t122 106.5t63.5 174.5t18.5 250.5t-18.5 251t-63.5 175t-122 106.5t-193 33.5q-93 0 -161 -22.5t-113.5 -66t-73 -113.5t-39 -157.5t-11.5 -206.5zM422 1546v176h182v-176h-182zM811 1546v176h182v-176h-182z" />
<glyph unicode="&#xd7;" horiz-adv-x="1245" d="M147 193l365 364l-362 365l108 108l365 -362l356 358l111 -108l-359 -359l367 -366l-109 -111l-368 367l-365 -365z" />
<glyph unicode="&#xd8;" horiz-adv-x="1413" d="M115 694q0 140 17 247.5t58 198.5t108 149.5t169.5 91t239.5 32.5q79 0 165 -14l58 162h155l-71 -207q154 -73 219 -237t65 -423q0 -140 -17 -247.5t-58 -198.5t-108 -149.5t-169 -91t-239 -32.5q-91 0 -164 15l-58 -166h-155l71 209q-156 72 -221 236t-65 425zM309 694 q0 -196 34 -317t114 -182l364 1054q-64 11 -114 11q-93 0 -161 -22.5t-113.5 -66t-73 -113.5t-39 -157.5t-11.5 -206.5zM594 137q44 -8 113 -8q116 0 193 33.5t122 106.5t63.5 174.5t18.5 250.5q0 194 -34 314.5t-114 181.5z" />
<glyph unicode="&#xd9;" horiz-adv-x="1363" d="M154 473v916h186v-953q0 -155 78 -233q44 -44 105 -64t159 -20t159 20t105 64q78 78 78 233v953h186v-916q0 -116 -25.5 -208t-94.5 -161q-67 -67 -164.5 -98t-243.5 -31t-243.5 31t-164.5 98q-69 69 -94.5 161t-25.5 208zM342 1733h223l221 -230h-157z" />
<glyph unicode="&#xda;" horiz-adv-x="1363" d="M154 473v916h186v-953q0 -155 78 -233q44 -44 105 -64t159 -20t159 20t105 64q78 78 78 233v953h186v-916q0 -116 -25.5 -208t-94.5 -161q-67 -67 -164.5 -98t-243.5 -31t-243.5 31t-164.5 98q-69 69 -94.5 161t-25.5 208zM592 1503l221 230h223l-286 -230h-158z" />
<glyph unicode="&#xdb;" horiz-adv-x="1363" d="M154 473v916h186v-953q0 -155 78 -233q44 -44 105 -64t159 -20t159 20t105 64q78 78 78 233v953h186v-916q0 -116 -25.5 -208t-94.5 -161q-67 -67 -164.5 -98t-243.5 -31t-243.5 31t-164.5 98q-69 69 -94.5 161t-25.5 208zM377 1503l225 238h162l223 -238h-166l-139 144 l-139 -144h-166z" />
<glyph unicode="&#xdc;" horiz-adv-x="1363" d="M154 473v916h186v-953q0 -155 78 -233q44 -44 105 -64t159 -20t159 20t105 64q78 78 78 233v953h186v-916q0 -116 -25.5 -208t-94.5 -161q-67 -67 -164.5 -98t-243.5 -31t-243.5 31t-164.5 98q-69 69 -94.5 161t-25.5 208zM397 1546v176h183v-176h-183zM786 1546v176h183 v-176h-183z" />
<glyph unicode="&#xdd;" horiz-adv-x="1177" d="M8 1389h203l381 -684h2l383 684h192l-487 -848v-541h-186v539zM492 1503l221 230h223l-287 -230h-157z" />
<glyph unicode="&#xde;" horiz-adv-x="1230" d="M184 0v1389h189v-265h276q159 0 254 -24.5t156 -85.5q110 -110 110 -340t-110 -340q-61 -61 -156.5 -86t-253.5 -25h-278v-223h-187zM371 369h293q101 0 153 12.5t94 54.5q64 64 64 238q0 165 -72 237q-42 42 -91 55t-148 13h-293v-610z" />
<glyph unicode="&#xdf;" horiz-adv-x="1353" d="M174 0v952q0 463 490 463q195 0 296 -84t101 -221q0 -100 -72 -172q-32 -32 -109.5 -80t-101.5 -72q-30 -30 -30 -71q1 -38 24 -59t50.5 -26.5t70.5 -6.5q34 -1 57 -2.5t58.5 -6t60 -11t56 -18.5t53 -28t44 -40t36 -54.5t22 -71.5t8.5 -90q0 -86 -34 -150.5t-94 -102 t-135 -55.5t-165 -18q-57 0 -156 13t-161 37v151q70 -25 162.5 -37t158.5 -12q132 0 191 42.5t59 125.5q0 45 -16 76.5t-36 47t-54.5 23.5t-55.5 9.5t-55 1.5q-324 0 -324 266q0 81 70 155q34 37 110.5 84.5t98.5 69.5q35 35 35 88q0 72 -65 110t-148 38q-170 0 -251 -75.5 t-81 -193.5v-995h-168z" />
<glyph unicode="&#xe0;" horiz-adv-x="1085" d="M100 299q0 141 80 221q61 60 158 82.5t229 22.5q6 0 195 -9v129q0 61 -11 96t-43.5 54.5t-78 25t-129.5 5.5q-148 0 -318 -37v143q137 37 342 37q108 0 178.5 -12t124.5 -45.5t78.5 -95t24.5 -156.5v-760h-117l-25 109h-2q-133 -127 -325 -127q-83 0 -157 23t-122 69 q-82 82 -82 225zM219 1389h223l222 -230h-158zM276 295q0 -168 216 -168q183 0 270 129v225q-113 11 -184 11q-121 0 -173.5 -15.5t-91.5 -52.5q-37 -37 -37 -129z" />
<glyph unicode="&#xe1;" horiz-adv-x="1085" d="M100 299q0 141 80 221q61 60 158 82.5t229 22.5q6 0 195 -9v129q0 61 -11 96t-43.5 54.5t-78 25t-129.5 5.5q-148 0 -318 -37v143q137 37 342 37q108 0 178.5 -12t124.5 -45.5t78.5 -95t24.5 -156.5v-760h-117l-25 109h-2q-133 -127 -325 -127q-83 0 -157 23t-122 69 q-82 82 -82 225zM276 295q0 -168 216 -168q183 0 270 129v225q-113 11 -184 11q-121 0 -173.5 -15.5t-91.5 -52.5q-37 -37 -37 -129zM432 1159l221 230h224l-287 -230h-158z" />
<glyph unicode="&#xe2;" horiz-adv-x="1085" d="M100 299q0 141 80 221q61 60 158 82.5t229 22.5q6 0 195 -9v129q0 61 -11 96t-43.5 54.5t-78 25t-129.5 5.5q-148 0 -318 -37v143q137 37 342 37q108 0 178.5 -12t124.5 -45.5t78.5 -95t24.5 -156.5v-760h-117l-25 109h-2q-133 -127 -325 -127q-83 0 -157 23t-122 69 q-82 82 -82 225zM246 1159l225 238h162l223 -238h-166l-139 144l-139 -144h-166zM276 295q0 -168 216 -168q183 0 270 129v225q-113 11 -184 11q-121 0 -173.5 -15.5t-91.5 -52.5q-37 -37 -37 -129z" />
<glyph unicode="&#xe3;" horiz-adv-x="1085" d="M100 299q0 141 80 221q61 60 158 82.5t229 22.5q6 0 195 -9v129q0 61 -11 96t-43.5 54.5t-78 25t-129.5 5.5q-148 0 -318 -37v143q137 37 342 37q108 0 178.5 -12t124.5 -45.5t78.5 -95t24.5 -156.5v-760h-117l-25 109h-2q-133 -127 -325 -127q-83 0 -157 23t-122 69 q-82 82 -82 225zM221 1204v135q37 28 89.5 51t97.5 23q52 0 154 -35t153 -35q82 0 188 74v-135q-36 -27 -88.5 -49.5t-97.5 -22.5q-53 0 -156.5 34t-150.5 34q-83 0 -189 -74zM276 295q0 -168 216 -168q183 0 270 129v225q-113 11 -184 11q-121 0 -173.5 -15.5t-91.5 -52.5 q-37 -37 -37 -129z" />
<glyph unicode="&#xe4;" horiz-adv-x="1085" d="M100 299q0 141 80 221q61 60 158 82.5t229 22.5q6 0 195 -9v129q0 61 -11 96t-43.5 54.5t-78 25t-129.5 5.5q-148 0 -318 -37v143q137 37 342 37q108 0 178.5 -12t124.5 -45.5t78.5 -95t24.5 -156.5v-760h-117l-25 109h-2q-133 -127 -325 -127q-83 0 -157 23t-122 69 q-82 82 -82 225zM254 1202v176h182v-176h-182zM276 295q0 -168 216 -168q183 0 270 129v225q-113 11 -184 11q-121 0 -173.5 -15.5t-91.5 -52.5q-37 -37 -37 -129zM643 1202v176h182v-176h-182z" />
<glyph unicode="&#xe5;" horiz-adv-x="1085" d="M100 299q0 141 80 221q61 60 158 82.5t229 22.5q6 0 195 -9v129q0 61 -11 96t-43.5 54.5t-78 25t-129.5 5.5q-148 0 -318 -37v143q137 37 342 37q108 0 178.5 -12t124.5 -45.5t78.5 -95t24.5 -156.5v-760h-117l-25 109h-2q-133 -127 -325 -127q-83 0 -157 23t-122 69 q-82 82 -82 225zM276 295q0 -168 216 -168q183 0 270 129v225q-113 11 -184 11q-121 0 -173.5 -15.5t-91.5 -52.5q-37 -37 -37 -129zM369 1311q0 149 184 149q182 0 182 -149q0 -150 -182 -150q-184 0 -184 150zM477 1311q0 -66 76 -66q74 0 74 66q0 67 -74 67 q-76 0 -76 -67z" />
<glyph unicode="&#xe6;" horiz-adv-x="1755" d="M100 299q0 141 80 221q61 60 158 82.5t229 22.5q6 0 195 -9v129q0 61 -11 96t-43.5 54.5t-78 25t-129.5 5.5q-148 0 -318 -37v143q137 37 342 37q161 0 243 -28t126 -101q123 129 342 129q216 0 315 -109t99 -329q0 -58 -11 -144h-686q6 -210 88 -292q76 -76 254 -76 q183 0 310 49v-143q-135 -50 -338 -50q-297 0 -412 175q-65 -87 -173.5 -127.5t-219.5 -40.5q-83 0 -157 23t-122 69q-82 82 -82 225zM276 295q0 -168 216 -168q99 0 180.5 46t124.5 110l-2 4q-18 70 -25 184v6q-154 15 -192 15q-121 0 -173.5 -15.5t-91.5 -52.5 q-37 -37 -37 -129zM956 625h525q2 27 2 43q0 140 -60 200q-58 58 -190 58q-127 0 -193 -66q-69 -69 -84 -235z" />
<glyph unicode="&#xe7;" horiz-adv-x="962" d="M113 522q0 103 13.5 183.5t47.5 150.5t89 115.5t140.5 71.5t198.5 26q151 0 256 -37v-143q-96 37 -237 37q-164 0 -238 -74q-92 -92 -92 -330q0 -120 21.5 -196t74.5 -129q70 -70 234 -70q138 0 268 49v-151q-122 -45 -242 -48l-22 -53q125 -30 125 -129 q0 -75 -68.5 -113t-185.5 -38q-71 0 -150 20v111q57 -17 133 -17q59 0 85 11.5t26 37.5q0 24 -32.5 37t-76.5 17l-12 49l33 72q-201 23 -295 154t-94 386z" />
<glyph unicode="&#xe8;" horiz-adv-x="1097" d="M113 522q0 547 465 547q216 0 314.5 -109t98.5 -329q0 -66 -10 -144h-686q6 -210 88 -292q76 -76 254 -76q182 0 309 49v-143q-135 -50 -338 -50q-260 0 -377.5 131.5t-117.5 415.5zM223 1389h223l222 -230h-158zM299 625h524q2 27 2 43q0 141 -59 200q-58 58 -191 58 q-126 0 -192 -66q-69 -69 -84 -235z" />
<glyph unicode="&#xe9;" horiz-adv-x="1097" d="M113 522q0 547 465 547q216 0 314.5 -109t98.5 -329q0 -66 -10 -144h-686q6 -210 88 -292q76 -76 254 -76q182 0 309 49v-143q-135 -50 -338 -50q-260 0 -377.5 131.5t-117.5 415.5zM299 625h524q2 27 2 43q0 141 -59 200q-58 58 -191 58q-126 0 -192 -66 q-69 -69 -84 -235zM498 1159l221 230h223l-287 -230h-157z" />
<glyph unicode="&#xea;" horiz-adv-x="1097" d="M113 522q0 547 465 547q216 0 314.5 -109t98.5 -329q0 -66 -10 -144h-686q6 -210 88 -292q76 -76 254 -76q182 0 309 49v-143q-135 -50 -338 -50q-260 0 -377.5 131.5t-117.5 415.5zM268 1159l226 238h161l224 -238h-166l-140 144l-139 -144h-166zM299 625h524q2 27 2 43 q0 141 -59 200q-58 58 -191 58q-126 0 -192 -66q-69 -69 -84 -235z" />
<glyph unicode="&#xeb;" horiz-adv-x="1097" d="M113 522q0 547 465 547q216 0 314.5 -109t98.5 -329q0 -66 -10 -144h-686q6 -210 88 -292q76 -76 254 -76q182 0 309 49v-143q-135 -50 -338 -50q-260 0 -377.5 131.5t-117.5 415.5zM289 1202v176h182v-176h-182zM299 625h524q2 27 2 43q0 141 -59 200q-58 58 -191 58 q-126 0 -192 -66q-69 -69 -84 -235zM678 1202v176h182v-176h-182z" />
<glyph unicode="&#xec;" horiz-adv-x="516" d="M-117 1389h223l222 -230h-158zM174 0v1044h168v-1044h-168z" />
<glyph unicode="&#xed;" horiz-adv-x="516" d="M174 0v1044h168v-1044h-168zM186 1159l222 230h223l-287 -230h-158z" />
<glyph unicode="&#xee;" horiz-adv-x="516" d="M-47 1159l225 238h162l223 -238h-166l-139 144l-139 -144h-166zM174 0v1044h168v-1044h-168z" />
<glyph unicode="&#xef;" horiz-adv-x="516" d="M-27 1202v176h183v-176h-183zM174 0v1044h168v-1044h-168zM362 1202v176h183v-176h-183z" />
<glyph unicode="&#xf0;" horiz-adv-x="1200" d="M113 532q0 94 15 171t40 132t61 97t75.5 67.5t87 41.5t90.5 22t91 6q60 0 129.5 -15t116.5 -50l4 2q-51 136 -170 219l-297 -135l-43 98l236 104q-5 3 -28.5 15.5t-35 18t-33 14t-40.5 14.5l116 82q79 -23 166 -74l226 100l45 -98l-170 -76q292 -254 292 -770 q0 -128 -27 -225t-71.5 -156.5t-110.5 -96.5t-135.5 -51t-154.5 -14q-79 0 -144.5 13.5t-128.5 51t-106 98.5t-69.5 161t-26.5 233zM287 522q0 -239 88 -327q76 -76 223 -76t223 76q88 88 88 327q0 240 -88 328q-76 76 -223 76t-223 -76q-88 -88 -88 -328z" />
<glyph unicode="&#xf1;" horiz-adv-x="1206" d="M174 0v1044h121l24 -147h3q163 166 397 166q186 0 259 -77.5t73 -248.5v-737h-168v702q0 119 -44 166t-161 47q-96 0 -183 -44.5t-153 -127.5v-743h-168zM272 1204v135q37 28 89.5 51t97.5 23q52 0 154 -35t153 -35q82 0 188 74v-135q-36 -27 -88.5 -49.5t-97.5 -22.5 q-53 0 -156.5 34t-150.5 34q-83 0 -189 -74z" />
<glyph unicode="&#xf2;" horiz-adv-x="1200" d="M113 522q0 152 34 259.5t100 169.5t152.5 90t200.5 28t200.5 -28t152.5 -90t100 -169.5t34 -259.5t-34 -259.5t-100 -169.5t-152.5 -90t-200.5 -28t-200.5 28t-152.5 90t-100 169.5t-34 259.5zM238 1389h223l221 -230h-158zM289 522q0 -239 88 -327q76 -76 223 -76 t223 76q88 88 88 327q0 240 -88 328q-76 76 -223 76t-223 -76q-88 -88 -88 -328z" />
<glyph unicode="&#xf3;" horiz-adv-x="1200" d="M113 522q0 152 34 259.5t100 169.5t152.5 90t200.5 28t200.5 -28t152.5 -90t100 -169.5t34 -259.5t-34 -259.5t-100 -169.5t-152.5 -90t-200.5 -28t-200.5 28t-152.5 90t-100 169.5t-34 259.5zM289 522q0 -239 88 -327q76 -76 223 -76t223 76q88 88 88 327q0 240 -88 328 q-76 76 -223 76t-223 -76q-88 -88 -88 -328zM518 1159l221 230h224l-287 -230h-158z" />
<glyph unicode="&#xf4;" horiz-adv-x="1200" d="M113 522q0 152 34 259.5t100 169.5t152.5 90t200.5 28t200.5 -28t152.5 -90t100 -169.5t34 -259.5t-34 -259.5t-100 -169.5t-152.5 -90t-200.5 -28t-200.5 28t-152.5 90t-100 169.5t-34 259.5zM289 522q0 -239 88 -327q76 -76 223 -76t223 76q88 88 88 327q0 240 -88 328 q-76 76 -223 76t-223 -76q-88 -88 -88 -328zM295 1159l225 238h162l223 -238h-166l-139 144l-139 -144h-166z" />
<glyph unicode="&#xf5;" horiz-adv-x="1200" d="M113 522q0 152 34 259.5t100 169.5t152.5 90t200.5 28t200.5 -28t152.5 -90t100 -169.5t34 -259.5t-34 -259.5t-100 -169.5t-152.5 -90t-200.5 -28t-200.5 28t-152.5 90t-100 169.5t-34 259.5zM260 1204v135q37 28 89 51t97 23q52 0 154.5 -35t153.5 -35q82 0 188 74 v-135q-36 -27 -88.5 -49.5t-97.5 -22.5q-53 0 -156.5 34t-150.5 34q-83 0 -189 -74zM289 522q0 -239 88 -327q76 -76 223 -76t223 76q88 88 88 327q0 240 -88 328q-76 76 -223 76t-223 -76q-88 -88 -88 -328z" />
<glyph unicode="&#xf6;" horiz-adv-x="1200" d="M113 522q0 152 34 259.5t100 169.5t152.5 90t200.5 28t200.5 -28t152.5 -90t100 -169.5t34 -259.5t-34 -259.5t-100 -169.5t-152.5 -90t-200.5 -28t-200.5 28t-152.5 90t-100 169.5t-34 259.5zM289 522q0 -239 88 -327q76 -76 223 -76t223 76q88 88 88 327q0 240 -88 328 q-76 76 -223 76t-223 -76q-88 -88 -88 -328zM315 1202v176h183v-176h-183zM705 1202v176h182v-176h-182z" />
<glyph unicode="&#xf7;" horiz-adv-x="1191" d="M115 483v146h962v-146h-962zM500 104v191h196v-191h-196zM500 823v191h196v-191h-196z" />
<glyph unicode="&#xf8;" horiz-adv-x="1200" d="M113 522q0 152 34 259.5t100 169.5t152.5 90t200.5 28q56 0 105 -6l32 92h156l-45 -133q239 -108 239 -500q0 -152 -34 -259.5t-100 -169.5t-152.5 -90t-200.5 -28q-58 0 -111 9l-32 -97h-156l47 136q-235 112 -235 499zM289 522q0 -239 88 -327q8 -10 22 -21l258 748 q-36 4 -57 4q-147 0 -223 -76q-88 -88 -88 -328zM537 121q20 -2 63 -2q147 0 223 76q88 88 88 327q0 240 -88 328q-26 21 -28 22z" />
<glyph unicode="&#xf9;" horiz-adv-x="1206" d="M156 307v737h168v-702q0 -119 43.5 -166t160.5 -47q96 0 183 44.5t153 127.5v743h168v-1044h-121l-24 147h-2q-162 -165 -398 -165q-186 0 -258.5 77t-72.5 248zM248 1389h223l221 -230h-157z" />
<glyph unicode="&#xfa;" horiz-adv-x="1206" d="M156 307v737h168v-702q0 -119 43.5 -166t160.5 -47q96 0 183 44.5t153 127.5v743h168v-1044h-121l-24 147h-2q-162 -165 -398 -165q-186 0 -258.5 77t-72.5 248zM508 1159l221 230h223l-286 -230h-158z" />
<glyph unicode="&#xfb;" horiz-adv-x="1206" d="M156 307v737h168v-702q0 -119 43.5 -166t160.5 -47q96 0 183 44.5t153 127.5v743h168v-1044h-121l-24 147h-2q-162 -165 -398 -165q-186 0 -258.5 77t-72.5 248zM289 1159l225 238h162l223 -238h-166l-139 144l-139 -144h-166z" />
<glyph unicode="&#xfc;" horiz-adv-x="1206" d="M156 307v737h168v-702q0 -119 43.5 -166t160.5 -47q96 0 183 44.5t153 127.5v743h168v-1044h-121l-24 147h-2q-162 -165 -398 -165q-186 0 -258.5 77t-72.5 248zM309 1202v176h183v-176h-183zM698 1202v176h183v-176h-183z" />
<glyph unicode="&#xfd;" horiz-adv-x="1054" d="M29 1044h180l213 -536q61 -154 108 -289h5q47 135 108 289l213 536h170l-561 -1388h-174l151 373zM453 1159l221 230h223l-287 -230h-157z" />
<glyph unicode="&#xfe;" horiz-adv-x="1202" d="M174 -344v1733h168v-449h4q50 62 135.5 92.5t180.5 30.5q117 0 201 -37.5t133 -109t71.5 -166.5t22.5 -220q0 -548 -484 -548q-76 0 -141 15t-92 31l-27 15h-4v-387h-168zM342 203q42 -38 108 -58t134 -20q80 0 138 19.5t102 64.5t65.5 123t21.5 190q0 216 -68.5 307 t-219.5 91q-158 0 -281 -154v-563z" />
<glyph unicode="&#xff;" horiz-adv-x="1054" d="M29 1044h180l213 -536q61 -154 108 -289h5q47 135 108 289l213 536h170l-561 -1388h-174l151 373zM242 1202v176h182v-176h-182zM631 1202v176h182v-176h-182z" />
<glyph unicode="&#x152;" horiz-adv-x="2039" d="M115 694q0 140 17 247.5t58 198.5t108 149.5t169.5 91t239.5 32.5q279 0 397 -143h4v119h838v-146h-652v-463h566v-145h-566v-490h668v-145h-854v121h-4q-118 -146 -397 -146q-137 0 -239.5 32.5t-169.5 91t-108 149.5t-58 198.5t-17 247.5zM309 694q0 -149 18.5 -250.5 t63.5 -174.5t122.5 -106.5t193.5 -33.5t193 33.5t122 106.5t63.5 174.5t18.5 250.5t-18.5 251t-63.5 175t-122 106.5t-193 33.5q-93 0 -161 -22.5t-113.5 -66t-73 -113.5t-39 -157.5t-11.5 -206.5z" />
<glyph unicode="&#x153;" horiz-adv-x="1894" d="M113 522q0 152 34 259.5t100 169.5t152.5 90t200.5 28q283 0 395 -184q111 184 379 184q216 0 315 -109t99 -329q0 -66 -10 -144h-686q6 -210 88 -292q76 -76 254 -76q182 0 309 49v-143q-135 -50 -338 -50q-301 0 -410 181q-112 -181 -395 -181q-114 0 -200.5 28 t-152.5 90t-100 169.5t-34 259.5zM289 522q0 -239 88 -327q76 -76 223 -76t223 76q88 88 88 327q0 240 -88 328q-76 76 -223 76t-223 -76q-88 -88 -88 -328zM1096 625h524q2 27 2 43q0 141 -59 200q-58 58 -191 58q-126 0 -192 -66q-69 -69 -84 -235z" />
<glyph unicode="&#x178;" horiz-adv-x="1177" d="M8 1389h203l381 -684h2l383 684h192l-487 -848v-541h-186v539zM307 1546v176h182v-176h-182zM696 1546v176h183v-176h-183z" />
<glyph unicode="&#x2c6;" d="M322 1159l225 238h162l223 -238h-166l-139 144l-140 -144h-165z" />
<glyph unicode="&#x2dc;" d="M324 1204v135q37 28 89 51t97 23q52 0 154 -35t153 -35q83 0 189 74v-135q-36 -27 -89 -49.5t-98 -22.5q-53 0 -156.5 34t-150.5 34q-82 0 -188 -74z" />
<glyph unicode="&#x2000;" horiz-adv-x="902" />
<glyph unicode="&#x2001;" horiz-adv-x="1804" />
<glyph unicode="&#x2002;" horiz-adv-x="902" />
<glyph unicode="&#x2003;" horiz-adv-x="1804" />
<glyph unicode="&#x2004;" horiz-adv-x="601" />
<glyph unicode="&#x2005;" horiz-adv-x="451" />
<glyph unicode="&#x2006;" horiz-adv-x="300" />
<glyph unicode="&#x2007;" horiz-adv-x="300" />
<glyph unicode="&#x2008;" horiz-adv-x="225" />
<glyph unicode="&#x2009;" horiz-adv-x="360" />
<glyph unicode="&#x200a;" horiz-adv-x="100" />
<glyph unicode="&#x2010;" horiz-adv-x="786" d="M66 483v146h655v-146h-655z" />
<glyph unicode="&#x2011;" horiz-adv-x="786" d="M66 483v146h655v-146h-655z" />
<glyph unicode="&#x2012;" horiz-adv-x="786" d="M66 483v146h655v-146h-655z" />
<glyph unicode="&#x2013;" horiz-adv-x="1245" d="M115 483v146h1015v-146h-1015z" />
<glyph unicode="&#x2014;" horiz-adv-x="2344" d="M115 483v146h2115v-146h-2115z" />
<glyph unicode="&#x2018;" horiz-adv-x="526" d="M70 907l206 482h130l-115 -482h-221z" />
<glyph unicode="&#x2019;" horiz-adv-x="526" d="M121 907l115 482h221l-207 -482h-129z" />
<glyph unicode="&#x201a;" horiz-adv-x="526" d="M121 -242l115 482h221l-207 -482h-129z" />
<glyph unicode="&#x201c;" horiz-adv-x="899" d="M70 907l206 482h130l-115 -482h-221zM442 907l207 482h129l-114 -482h-222z" />
<glyph unicode="&#x201d;" horiz-adv-x="897" d="M121 907l115 482h221l-207 -482h-129zM492 907l114 482h221l-206 -482h-129z" />
<glyph unicode="&#x201e;" horiz-adv-x="899" d="M121 -242l115 482h221l-207 -482h-129zM494 -242l114 482h221l-206 -482h-129z" />
<glyph unicode="&#x2022;" d="M356 700q0 107 74.5 182.5t181.5 75.5t182.5 -75.5t75.5 -182.5t-75.5 -181.5t-182.5 -74.5t-181.5 74.5t-74.5 181.5z" />
<glyph unicode="&#x2026;" horiz-adv-x="2123" d="M86 0v219h217v-219h-217zM954 0v219h217v-219h-217zM1821 0v219h217v-219h-217z" />
<glyph unicode="&#x202f;" horiz-adv-x="360" />
<glyph unicode="&#x2039;" horiz-adv-x="788" d="M127 578l326 466h209l-320 -466l320 -474h-209z" />
<glyph unicode="&#x203a;" horiz-adv-x="788" d="M127 104l319 474l-319 466h209l326 -466l-326 -474h-209z" />
<glyph unicode="&#x205f;" horiz-adv-x="451" />
<glyph unicode="&#x20ac;" horiz-adv-x="1351" d="M129 524l53 127h103v109h-138l54 127h94q31 279 161.5 402.5t356.5 123.5q155 0 289 -47v-154q-127 48 -254 48q-76 0 -133 -17.5t-104.5 -59.5t-77.5 -115.5t-44 -180.5h500l-55 -127h-455v-109h416l-53 -127h-355q12 -114 41.5 -190.5t77.5 -119t105.5 -60t136.5 -17.5 q149 0 280 58v-162q-116 -58 -315 -58q-233 0 -363.5 127.5t-158.5 421.5h-162z" />
<glyph unicode="&#x2122;" horiz-adv-x="1339" d="M31 1305v84h477v-84h-193v-541h-96v541h-188zM592 764v625h139l176 -381h4l176 381h140v-625h-101v229q0 121 7 293h-5q-73 -170 -86 -199l-88 -188h-94l-88 188q-13 29 -86 199h-4q6 -147 6 -293v-229h-96z" />
<glyph unicode="&#x25fc;" horiz-adv-x="1044" d="M0 0v1044h1044v-1044h-1044z" />
<glyph unicode="&#xfb03;" horiz-adv-x="2015" d="M61 907v119l183 14v56q0 180 72.5 245.5t252.5 65.5q122 0 222 -23v-139q-87 21 -197 21q-64 0 -100.5 -8t-54.5 -31t-22.5 -50t-4.5 -79v-54h280v-137h-280v-907h-168v907h-183zM791 907v119l192 14v56q0 93 18 152.5t59.5 95t101 49.5t151.5 14q88 0 180 -23v-139 q-77 21 -156 21q-64 0 -101.5 -8t-56 -31t-23.5 -50t-5 -79v-54h342v-137h-342v-907h-168v907h-192zM1653 1198v191h194v-191h-194zM1665 0v1044h168v-1044h-168z" />
<glyph unicode="&#xfb04;" horiz-adv-x="2007" d="M61 907v119l183 14v56q0 180 72.5 245.5t252.5 65.5q122 0 222 -23v-139q-87 21 -197 21q-64 0 -100.5 -8t-54.5 -31t-22.5 -50t-4.5 -79v-54h280v-137h-280v-907h-168v907h-183zM791 907v119l192 14v56q0 93 18 152.5t59.5 95t101 49.5t151.5 14q88 0 180 -23v-139 q-77 21 -156 21q-64 0 -101.5 -8t-56 -31t-23.5 -50t-5 -79v-54h342v-137h-342v-907h-168v907h-192zM1665 0v1389h168v-1389h-168z" />
</font>
</defs>
</svg>
